<svg width="59" height="51" viewBox="0 0 59 51" fill="none" xmlns="http://www.w3.org/2000/svg">
<path d="M51.9371 28.3562C51.9348 17.8908 44.4127 9.14577 34.3666 6.99811C32.6074 6.70831 29.6731 2.693 32.1386 0.0293606L22.4285 0C22.533 4.67864 24.0547 7.16285 24.0285 7.16938C24.677 8.48135 25.6019 9.62315 26.6587 10.629C29.2682 13.1138 33.375 14.3893 33.375 14.3893C39.5734 16.1134 44.1168 22.1464 44.1201 28.2969C44.1201 28.3018 44.1201 28.3062 44.1201 28.3105C44.1246 36.3009 37.5006 42.7808 29.3272 42.7857C21.1532 42.7895 14.5236 36.315 14.5203 28.3235C14.5203 28.3187 14.5203 28.3143 14.5203 28.3105C14.5158 20.692 20.008 14.7384 27.6498 13.882L27.6158 13.8266C26.4874 13.1192 23.8194 10.5279 22.2288 7.69678C13.4764 10.6665 7.19278 18.7983 7.19501 28.3665C7.19501 28.3698 7.19501 28.373 7.19501 28.3763C7.19834 40.4559 17.216 50.2454 29.5708 50.2422C41.9255 50.2389 51.9404 40.445 51.9371 28.3681C51.9371 28.3627 51.9371 28.36 51.9371 28.3562Z" fill="white"/>
<path d="M0 43.1986L3.84979 49.579C7.4432 49.2224 9.78967 47.1269 11.9676 44.8335C10.2374 43.0066 8.81526 41.1792 7.86588 38.7793C6.24187 41.6109 3.25247 43.2774 0 43.1986Z" fill="#FF0064"/>
<path d="M50.9661 39.1893C49.6769 41.3283 48.2648 43.4047 46.5307 45.3251C49.1247 47.8066 51.4405 49.1425 54.732 50.0706C56.6897 47.7299 58.1579 45.4844 59 43.3618C56.054 43.5249 52.9127 42.1912 50.9661 39.1893Z" fill="white"/>
</svg>
