<svg width="164" height="94" viewBox="0 0 164 94" fill="none" xmlns="http://www.w3.org/2000/svg">
<path d="M3.552 86.144C2.976 86.144 2.52 85.976 2.184 85.64C1.848 85.304 1.68 84.848 1.68 84.272V70.808C1.68 70.248 1.848 69.8 2.184 69.464C2.52 69.128 2.976 68.96 3.552 68.96C4.128 68.96 4.584 69.128 4.92 69.464C5.256 69.8 5.424 70.248 5.424 70.808V84.272C5.424 84.848 5.256 85.304 4.92 85.64C4.584 85.976 4.128 86.144 3.552 86.144ZM25.1936 68.96C25.7216 68.96 26.1456 69.136 26.4656 69.488C26.8016 69.824 26.9696 70.264 26.9696 70.808V84.272C26.9696 84.832 26.8016 85.288 26.4656 85.64C26.1456 85.976 25.7216 86.144 25.1936 86.144C24.6176 86.144 24.1536 85.936 23.8016 85.52L15.7616 75.224V84.272C15.7616 84.832 15.6016 85.288 15.2816 85.64C14.9776 85.976 14.5616 86.144 14.0336 86.144C13.5056 86.144 13.0816 85.976 12.7616 85.64C12.4416 85.288 12.2816 84.832 12.2816 84.272V70.808C12.2816 70.264 12.4416 69.824 12.7616 69.488C13.0976 69.136 13.5296 68.96 14.0576 68.96C14.6496 68.96 15.1056 69.168 15.4256 69.584L23.4656 79.808V70.808C23.4656 70.264 23.6256 69.824 23.9456 69.488C24.2656 69.136 24.6816 68.96 25.1936 68.96ZM41.6044 86.216C39.9404 86.216 38.4844 85.864 37.2364 85.16C35.9884 84.456 35.0284 83.448 34.3564 82.136C33.6844 80.824 33.3484 79.288 33.3484 77.528C33.3484 75.768 33.6844 74.24 34.3564 72.944C35.0284 71.632 35.9884 70.624 37.2364 69.92C38.4844 69.216 39.9404 68.864 41.6044 68.864C43.7004 68.864 45.5084 69.44 47.0284 70.592C47.2684 70.784 47.4364 70.976 47.5324 71.168C47.6284 71.36 47.6764 71.6 47.6764 71.888C47.6764 72.304 47.5564 72.664 47.3164 72.968C47.0924 73.256 46.8124 73.4 46.4764 73.4C46.2524 73.4 46.0524 73.376 45.8764 73.328C45.7164 73.264 45.5324 73.16 45.3244 73.016C44.6844 72.6 44.0924 72.304 43.5484 72.128C43.0044 71.936 42.4204 71.84 41.7964 71.84C40.2604 71.84 39.1004 72.32 38.3164 73.28C37.5484 74.224 37.1644 75.64 37.1644 77.528C37.1644 81.336 38.7084 83.24 41.7964 83.24C42.3884 83.24 42.9484 83.152 43.4764 82.976C44.0044 82.784 44.6204 82.48 45.3244 82.064C45.5644 81.92 45.7644 81.824 45.9244 81.776C46.0844 81.712 46.2684 81.68 46.4764 81.68C46.8124 81.68 47.0924 81.832 47.3164 82.136C47.5564 82.424 47.6764 82.776 47.6764 83.192C47.6764 83.48 47.6204 83.728 47.5084 83.936C47.4124 84.128 47.2524 84.312 47.0284 84.488C45.5084 85.64 43.7004 86.216 41.6044 86.216ZM61.0185 86.216C59.3385 86.216 57.8745 85.864 56.6265 85.16C55.3945 84.44 54.4425 83.432 53.7705 82.136C53.0985 80.824 52.7625 79.288 52.7625 77.528C52.7625 75.768 53.0985 74.24 53.7705 72.944C54.4425 71.632 55.3945 70.624 56.6265 69.92C57.8745 69.216 59.3385 68.864 61.0185 68.864C62.6985 68.864 64.1545 69.216 65.3865 69.92C66.6345 70.624 67.5945 71.632 68.2665 72.944C68.9385 74.24 69.2745 75.768 69.2745 77.528C69.2745 79.288 68.9385 80.824 68.2665 82.136C67.5945 83.432 66.6345 84.44 65.3865 85.16C64.1545 85.864 62.6985 86.216 61.0185 86.216ZM61.0185 83.312C62.4265 83.312 63.5305 82.816 64.3305 81.824C65.1465 80.832 65.5545 79.4 65.5545 77.528C65.5545 75.656 65.1545 74.232 64.3545 73.256C63.5545 72.264 62.4425 71.768 61.0185 71.768C59.5945 71.768 58.4825 72.264 57.6825 73.256C56.8985 74.232 56.5065 75.656 56.5065 77.528C56.5065 79.4 56.9065 80.832 57.7065 81.824C58.5065 82.816 59.6105 83.312 61.0185 83.312ZM88.7131 76.664C89.1611 76.664 89.5131 76.792 89.7691 77.048C90.0411 77.288 90.1771 77.624 90.1771 78.056V82.736C90.1771 83.376 90.1211 83.872 90.0091 84.224C89.9131 84.576 89.7371 84.856 89.4811 85.064C89.2251 85.272 88.8411 85.448 88.3291 85.592C87.7051 85.784 86.9851 85.936 86.1691 86.048C85.3691 86.16 84.6091 86.216 83.8891 86.216C82.0971 86.216 80.5451 85.872 79.2331 85.184C77.9211 84.48 76.9131 83.48 76.2091 82.184C75.5051 80.872 75.1531 79.32 75.1531 77.528C75.1531 75.768 75.4971 74.24 76.1851 72.944C76.8891 71.632 77.8891 70.624 79.1851 69.92C80.4811 69.216 81.9931 68.864 83.7211 68.864C85.9451 68.864 87.7851 69.44 89.2411 70.592C89.4811 70.784 89.6491 70.976 89.7451 71.168C89.8411 71.36 89.8891 71.6 89.8891 71.888C89.8891 72.304 89.7691 72.664 89.5291 72.968C89.3051 73.256 89.0331 73.4 88.7131 73.4C88.5051 73.4 88.3131 73.368 88.1371 73.304C87.9771 73.24 87.7771 73.136 87.5371 72.992C86.8651 72.576 86.2491 72.28 85.6891 72.104C85.1291 71.928 84.5131 71.84 83.8411 71.84C80.5771 71.84 78.9451 73.736 78.9451 77.528C78.9451 79.48 79.3691 80.936 80.2171 81.896C81.0651 82.856 82.3451 83.336 84.0571 83.336C84.9851 83.336 85.9051 83.216 86.8171 82.976V79.256H84.6091C84.1451 79.256 83.7851 79.144 83.5291 78.92C83.2731 78.696 83.1451 78.376 83.1451 77.96C83.1451 77.544 83.2731 77.224 83.5291 77C83.7851 76.776 84.1451 76.664 84.6091 76.664H88.7131ZM109.764 68.96C110.292 68.96 110.716 69.136 111.036 69.488C111.372 69.824 111.54 70.264 111.54 70.808V84.272C111.54 84.832 111.372 85.288 111.036 85.64C110.716 85.976 110.292 86.144 109.764 86.144C109.188 86.144 108.724 85.936 108.372 85.52L100.332 75.224V84.272C100.332 84.832 100.172 85.288 99.8519 85.64C99.5479 85.976 99.1319 86.144 98.6039 86.144C98.0759 86.144 97.6519 85.976 97.3319 85.64C97.0119 85.288 96.8519 84.832 96.8519 84.272V70.808C96.8519 70.264 97.0119 69.824 97.3319 69.488C97.6679 69.136 98.0999 68.96 98.6279 68.96C99.2199 68.96 99.6759 69.168 99.9959 69.584L108.036 79.808V70.808C108.036 70.264 108.196 69.824 108.516 69.488C108.836 69.136 109.252 68.96 109.764 68.96ZM120.271 86.144C119.695 86.144 119.239 85.976 118.903 85.64C118.567 85.304 118.399 84.848 118.399 84.272V70.808C118.399 70.248 118.567 69.8 118.903 69.464C119.239 69.128 119.695 68.96 120.271 68.96C120.847 68.96 121.303 69.128 121.639 69.464C121.975 69.8 122.143 70.248 122.143 70.808V84.272C122.143 84.848 121.975 85.304 121.639 85.64C121.303 85.976 120.847 86.144 120.271 86.144ZM134.784 86.12C134.224 86.12 133.768 85.952 133.416 85.616C133.08 85.28 132.912 84.832 132.912 84.272V72.128H129.024C127.84 72.128 127.248 71.616 127.248 70.592C127.248 69.584 127.84 69.08 129.024 69.08H140.544C141.728 69.08 142.32 69.584 142.32 70.592C142.32 71.616 141.728 72.128 140.544 72.128H136.656V84.272C136.656 84.832 136.488 85.28 136.152 85.616C135.816 85.952 135.36 86.12 134.784 86.12ZM154.245 86.216C152.565 86.216 151.101 85.864 149.853 85.16C148.621 84.44 147.669 83.432 146.997 82.136C146.325 80.824 145.989 79.288 145.989 77.528C145.989 75.768 146.325 74.24 146.997 72.944C147.669 71.632 148.621 70.624 149.853 69.92C151.101 69.216 152.565 68.864 154.245 68.864C155.925 68.864 157.381 69.216 158.613 69.92C159.861 70.624 160.821 71.632 161.493 72.944C162.165 74.24 162.501 75.768 162.501 77.528C162.501 79.288 162.165 80.824 161.493 82.136C160.821 83.432 159.861 84.44 158.613 85.16C157.381 85.864 155.925 86.216 154.245 86.216ZM154.245 83.312C155.653 83.312 156.757 82.816 157.557 81.824C158.373 80.832 158.781 79.4 158.781 77.528C158.781 75.656 158.381 74.232 157.581 73.256C156.781 72.264 155.669 71.768 154.245 71.768C152.821 71.768 151.709 72.264 150.909 73.256C150.125 74.232 149.733 75.656 149.733 77.528C149.733 79.4 150.133 80.832 150.933 81.824C151.733 82.816 152.837 83.312 154.245 83.312Z" fill="#272727"/>
<path d="M51.9371 28.3562C51.9348 17.8908 44.4127 9.14577 34.3666 6.99811C32.6074 6.70831 29.6731 2.693 32.1386 0.0293606L22.4285 0C22.533 4.67864 24.0547 7.16285 24.0285 7.16938C24.677 8.48135 25.6019 9.62315 26.6587 10.629C29.2682 13.1138 33.375 14.3893 33.375 14.3893C39.5734 16.1134 44.1168 22.1464 44.1201 28.2969C44.1201 28.3018 44.1201 28.3062 44.1201 28.3105C44.1246 36.3009 37.5006 42.7808 29.3272 42.7857C21.1532 42.7895 14.5236 36.315 14.5203 28.3235C14.5203 28.3187 14.5203 28.3143 14.5203 28.3105C14.5158 20.692 20.008 14.7384 27.6498 13.882L27.6158 13.8266C26.4874 13.1192 23.8194 10.5279 22.2288 7.69678C13.4764 10.6665 7.19278 18.7983 7.19501 28.3665C7.19501 28.3698 7.19501 28.373 7.19501 28.3763C7.19834 40.4559 17.216 50.2454 29.5708 50.2422C41.9255 50.2389 51.9404 40.445 51.9371 28.3681C51.9371 28.3627 51.9371 28.36 51.9371 28.3562Z" fill="#292929"/>
<path d="M0 43.1986L3.84979 49.579C7.4432 49.2224 9.78967 47.1269 11.9676 44.8335C10.2374 43.0066 8.81526 41.1792 7.86588 38.7793C6.24187 41.6109 3.25247 43.2774 0 43.1986Z" fill="#FF0064"/>
<path d="M50.9661 39.1892C49.6769 41.3282 48.2648 43.4046 46.5307 45.325C49.1247 47.8065 51.4405 49.1424 54.732 50.0705C56.6897 47.7298 58.1579 45.4843 59 43.3616C56.054 43.5248 52.9127 42.191 50.9661 39.1892Z" fill="#737373"/>
</svg>
